<svg xmlns="http://www.w3.org/2000/svg" xmlns:xlink="http://www.w3.org/1999/xlink" width="150" zoomAndPan="magnify" viewBox="0 0 112.5 112.499997" height="150" preserveAspectRatio="xMidYMid meet" version="1.0"><defs><clipPath id="66447c7534"><path d="M 21.351562 5.113281 L 91.101562 5.113281 L 91.101562 107.113281 L 21.351562 107.113281 Z M 21.351562 5.113281 " clip-rule="nonzero"/></clipPath></defs><g clip-path="url(#66447c7534)"><path fill="#e50914" d="M 39.964844 107.113281 L 23.707031 107.113281 C 22.425781 107.113281 21.382812 106.074219 21.382812 104.796875 L 21.382812 7.433594 C 21.382812 6.152344 22.425781 5.113281 23.707031 5.113281 L 88.742188 5.113281 C 90.027344 5.113281 91.066406 6.152344 91.066406 7.433594 L 91.066406 21.34375 C 91.066406 22.621094 90.027344 23.660156 88.742188 23.660156 L 42.289062 23.660156 L 42.289062 49.160156 L 81.773438 49.160156 C 83.058594 49.160156 84.097656 50.199219 84.097656 51.476562 L 84.097656 63.070312 C 84.097656 64.347656 83.058594 65.386719 81.773438 65.386719 L 42.289062 65.386719 L 42.289062 104.796875 C 42.289062 106.074219 41.246094 107.113281 39.964844 107.113281 Z M 39.964844 107.113281 " fill-opacity="1" fill-rule="nonzero"/></g></svg>